<svg width="80" height="80" viewBox="0 0 80 80" fill="none" xmlns="http://www.w3.org/2000/svg">
<path d="M66.5568 37.7181C66.2099 28.1725 52.4802 28.1856 52.1418 37.7181C52.1438 39.5032 52.8073 41.2241 54.0041 42.5485C55.2009 43.8729 56.8461 44.7068 58.6218 44.8891C59.8509 61.1013 49.1934 63.9672 48.8165 64.0666C43.1634 64.8982 38.7731 64.0225 35.7702 61.4603C32.0887 58.3197 31.2918 53.2994 31.1437 50.5835C37.3218 48.7769 45.1471 40.1294 46.4671 24.6991C46.6108 22.9488 46.0907 21.2086 45.0101 19.8242C43.9296 18.4399 42.3677 17.5128 40.6349 17.2272C39.5727 12.1975 32.1637 12.866 32.0802 18.071C32.0897 19.1165 32.4783 20.1232 33.1739 20.9039C33.8695 21.6846 34.8248 22.1863 35.8624 22.3158C36.8999 22.4454 37.9493 22.194 38.8155 21.6083C39.6817 21.0226 40.3059 20.1424 40.5721 19.1313C41.7889 19.3872 42.87 20.0797 43.6114 21.0779C44.3528 22.0761 44.7033 23.3111 44.5968 24.55C43.4577 38.8806 36.6177 45.4169 32.6456 48.0344C31.935 48.5103 31.1022 48.771 30.2471 48.7853C29.3921 48.7996 28.551 48.5669 27.8249 48.115C20.8377 43.4819 17.0877 31.9656 15.4752 25.5128C15.3106 24.8648 15.2776 24.1903 15.3782 23.5292C15.4788 22.8682 15.7111 22.2341 16.0612 21.6644C16.4811 20.997 17.0437 20.431 17.7085 20.0069C18.3732 19.5829 19.1237 19.3114 19.9059 19.2119C20.1919 20.2336 20.8444 21.1141 21.7387 21.685C22.633 22.2559 23.7063 22.4772 24.7535 22.3065C25.8007 22.1358 26.7482 21.5852 27.415 20.7599C28.0817 19.9345 28.4209 18.8924 28.3677 17.8328C28.3144 16.7731 27.8725 15.7702 27.1264 15.0159C26.3802 14.2616 25.3823 13.8087 24.3233 13.7438C23.2643 13.679 22.2185 14.0067 21.3859 14.6644C20.5534 15.3221 19.9924 16.2635 19.8102 17.3088L18.8062 17.5431C17.9133 17.7556 17.0713 18.1425 16.3286 18.6816C15.5859 19.2207 14.9571 19.9014 14.4785 20.6844C13.9998 21.4675 13.6808 22.3375 13.5397 23.2443C13.3987 24.1512 13.4384 25.077 13.6565 25.9685C15.4752 32.7738 20.0006 47.9088 29.2677 50.6078C29.4224 53.5966 30.3046 59.2628 34.5534 62.8872C38.009 66.0419 44.069 66.776 49.1746 65.905C49.3031 65.8741 61.799 62.6116 60.4949 44.8263C62.1843 44.5531 63.7216 43.6883 64.832 42.3861C65.9425 41.084 66.5538 39.4295 66.5568 37.7181ZM36.4002 20.515C35.7518 20.515 35.1299 20.2574 34.6714 19.7989C34.2128 19.3404 33.9552 18.7185 33.9552 18.07C33.9552 17.4216 34.2128 16.7997 34.6714 16.3411C35.1299 15.8826 35.7518 15.625 36.4002 15.625C37.0487 15.625 37.6706 15.8826 38.1291 16.3411C38.5876 16.7997 38.8452 17.4216 38.8452 18.07C38.8452 18.7185 38.5876 19.3404 38.1291 19.7989C37.6706 20.2574 37.0487 20.515 36.4002 20.515ZM24.0534 15.625C24.7018 15.625 25.3237 15.8826 25.7822 16.3411C26.2408 16.7997 26.4984 17.4216 26.4984 18.07C26.4984 18.7185 26.2408 19.3404 25.7822 19.7989C25.3237 20.2574 24.7018 20.515 24.0534 20.515C23.4049 20.515 22.783 20.2574 22.3245 19.7989C21.866 19.3404 21.6084 18.7185 21.6084 18.07C21.6084 17.4216 21.866 16.7997 22.3245 16.3411C22.783 15.8826 23.4049 15.625 24.0534 15.625ZM59.4412 43.0469C52.3284 42.9269 52.2318 32.6425 59.3493 32.3856C66.3412 32.6031 66.4218 42.715 59.4412 43.0469Z" fill="#1C396A"/>
<path d="M59.3493 34.4182C58.4741 34.4182 57.6347 34.7658 57.0159 35.3847C56.397 36.0036 56.0493 36.8429 56.0493 37.7182C56.0493 38.5934 56.397 39.4327 57.0159 40.0516C57.6347 40.6705 58.4741 41.0182 59.3493 41.0182C60.2245 41.0182 61.0639 40.6705 61.6828 40.0516C62.3016 39.4327 62.6493 38.5934 62.6493 37.7182C62.6493 36.8429 62.3016 36.0036 61.6828 35.3847C61.0639 34.7658 60.2245 34.4182 59.3493 34.4182ZM59.3493 39.1432C58.9714 39.1432 58.6089 38.993 58.3417 38.7258C58.0745 38.4585 57.9243 38.0961 57.9243 37.7182C57.9243 37.3402 58.0745 36.9778 58.3417 36.7105C58.6089 36.4433 58.9714 36.2932 59.3493 36.2932C59.7273 36.2932 60.0897 36.4433 60.3569 36.7105C60.6242 36.9778 60.7743 37.3402 60.7743 37.7182C60.7743 38.0961 60.6242 38.4585 60.3569 38.7258C60.0897 38.993 59.7273 39.1432 59.3493 39.1432Z" fill="#1C396A"/>
<rect x="0.5" y="0.5" width="79" height="79" rx="9.5" stroke="#545F71"/>
</svg>
