<svg width="22" height="22" viewBox="0 0 22 22" fill="none" xmlns="http://www.w3.org/2000/svg">
<path d="M20.8147 10.3519L14.398 3.93524C14.2252 3.76826 13.9936 3.67586 13.7533 3.67795C13.5129 3.68004 13.283 3.77645 13.113 3.9464C12.9431 4.11636 12.8467 4.34627 12.8446 4.58662C12.8425 4.82697 12.9349 5.05852 13.1019 5.2314L17.9538 10.0833H1.83329C1.59018 10.0833 1.35702 10.1799 1.18511 10.3518C1.0132 10.5237 0.916626 10.7569 0.916626 11C0.916626 11.2431 1.0132 11.4763 1.18511 11.6482C1.35702 11.8201 1.59018 11.9167 1.83329 11.9167H17.9538L13.1019 16.7686C13.0143 16.8531 12.9445 16.9543 12.8965 17.0661C12.8484 17.178 12.8231 17.2982 12.8221 17.42C12.821 17.5417 12.8442 17.6624 12.8903 17.775C12.9364 17.8877 13.0044 17.99 13.0905 18.0761C13.1766 18.1622 13.2789 18.2302 13.3916 18.2763C13.5042 18.3224 13.6249 18.3456 13.7467 18.3446C13.8684 18.3435 13.9887 18.3182 14.1005 18.2702C14.2123 18.2221 14.3135 18.1523 14.398 18.0647L20.8147 11.6481C20.9866 11.4762 21.0831 11.2431 21.0831 11C21.0831 10.7569 20.9866 10.5238 20.8147 10.3519Z" fill="white"/>
</svg>
