<svg width="23" height="23" viewBox="0 0 23 23" fill="none" xmlns="http://www.w3.org/2000/svg">
<path d="M11.5 0.71875C6.94312 0.71875 3.23438 4.4275 3.23438 8.98438C3.23438 16.1216 10.3716 21.7566 10.6734 21.9938C10.9178 22.1878 11.2053 22.2813 11.5 22.2813C11.7947 22.2813 12.0822 22.1878 12.3266 21.9938C12.6284 21.7566 19.7656 16.1216 19.7656 8.98438C19.7656 4.4275 16.0569 0.71875 11.5 0.71875ZM11.5 12.19C9.63125 12.19 8.11469 10.6734 8.11469 8.80469C8.11469 6.93594 9.63125 5.41938 11.5 5.41938C13.3687 5.41938 14.8853 6.93594 14.8853 8.80469C14.8853 10.6734 13.3687 12.19 11.5 12.19Z" fill="#1C396A"/>
</svg>
