<svg width="24" height="24" viewBox="0 0 24 24" fill="none" xmlns="http://www.w3.org/2000/svg">
<path fill-rule="evenodd" clip-rule="evenodd" d="M2.94558 4.61082L9.42933 11.0974C10.8435 12.5088 13.155 12.51 14.5703 11.0974L21.0541 4.61082C21.0694 4.59558 21.0812 4.57716 21.0886 4.55685C21.096 4.53654 21.0989 4.51485 21.097 4.49332C21.0951 4.47178 21.0885 4.45093 21.0776 4.43224C21.0667 4.41355 21.0519 4.39748 21.0341 4.38517C20.3728 3.92397 19.5682 3.65054 18.7015 3.65054H5.29824C4.43147 3.65054 3.62686 3.92401 2.96555 4.38517C2.94778 4.39748 2.93293 4.41355 2.92207 4.43224C2.91121 4.45093 2.90459 4.47178 2.90268 4.49332C2.90077 4.51485 2.90363 4.53654 2.91104 4.55685C2.91846 4.57716 2.93025 4.59558 2.94558 4.61082ZM1.21289 7.73584C1.21236 7.07677 1.37254 6.4275 1.67953 5.84429C1.69025 5.82373 1.70567 5.80599 1.72453 5.79251C1.7434 5.77903 1.76517 5.77019 1.7881 5.76671C1.81102 5.76323 1.83444 5.76521 1.85646 5.77248C1.87847 5.77975 1.89846 5.79212 1.9148 5.80857L8.31647 12.2102C10.3437 14.2404 13.6548 14.2416 15.6833 12.2102L22.0849 5.80857C22.1013 5.79212 22.1212 5.77975 22.1433 5.77248C22.1653 5.76521 22.1887 5.76323 22.2116 5.76671C22.2345 5.77019 22.2563 5.77903 22.2752 5.79251C22.2941 5.80599 22.3095 5.82373 22.3202 5.84429C22.6272 6.42751 22.7873 7.07677 22.7868 7.73584V16.2641C22.7868 18.5185 20.953 20.3495 18.7015 20.3495H5.29824C3.04674 20.3495 1.21289 18.5185 1.21289 16.2641V7.73584Z" fill="#1C396A"/>
</svg>
