<svg width="80" height="80" viewBox="0 0 80 80" fill="none" xmlns="http://www.w3.org/2000/svg">
<path d="M63.2453 21.8852C61.2132 21.883 59.265 21.0745 57.8285 19.6371C56.392 18.1997 55.5848 16.2509 55.5841 14.2187C55.5841 14.111 55.563 14.0043 55.5217 13.9048C55.4805 13.8052 55.4201 13.7147 55.3439 13.6386C55.2677 13.5624 55.1773 13.502 55.0777 13.4608C54.9782 13.4196 54.8715 13.3984 54.7637 13.3984H25.2766C25.0585 13.3996 24.8497 13.487 24.6959 13.6418C24.5422 13.7965 24.456 14.0058 24.4563 14.2239C24.454 16.2546 23.6463 18.2015 22.2104 19.6374C20.7745 21.0734 18.8276 21.881 16.7969 21.8833C16.5793 21.8833 16.3707 21.9697 16.2168 22.1235C16.063 22.2774 15.9766 22.486 15.9766 22.7036V33.4895C15.9783 40.8047 18.27 47.9359 22.5303 53.8825C26.7905 59.8291 32.8055 64.2929 39.7314 66.6475C39.9186 66.7041 40.1193 66.6975 40.3023 66.6287C47.2334 64.28 53.2538 59.8177 57.5169 53.8694C61.78 47.9211 64.0713 40.7862 64.0684 33.468V22.7055C64.0675 22.4877 63.9803 22.2792 63.8261 22.1255C63.6719 21.9718 63.4631 21.8854 63.2453 21.8852ZM62.4297 33.468C62.4326 40.405 60.2728 47.1704 56.2509 52.8225C52.229 58.4747 46.545 62.7324 39.9902 65.0031C33.4537 62.7188 27.7891 58.459 23.7804 52.8134C19.7717 47.1677 17.6173 40.4155 17.6153 33.4914V23.4902C19.7901 23.2947 21.8271 22.3417 23.3707 20.7974C24.9144 19.2531 25.8667 17.2158 26.0612 15.0409H53.9809C54.1754 17.216 55.1278 19.2536 56.6717 20.798C58.2155 22.3424 60.2528 23.2954 62.4278 23.4906L62.4297 33.468Z" fill="#545F71"/>
<path d="M49.1212 36.719H43.281V30.8788C43.281 30.5939 43.1678 30.3207 42.9664 30.1193C42.7649 29.9179 42.4917 29.8047 42.2069 29.8047H37.9103C37.6255 29.8049 37.3524 29.9181 37.151 30.1195C36.9496 30.3209 36.8364 30.594 36.8362 30.8788V36.719H30.996C30.7111 36.719 30.4379 36.8322 30.2365 37.0336C30.035 37.2351 29.9219 37.5083 29.9219 37.7931V42.0897C29.9219 42.3745 30.035 42.6478 30.2365 42.8492C30.4379 43.0506 30.7111 43.1638 30.996 43.1638H36.8362V49.004C36.8364 49.2888 36.9496 49.5619 37.151 49.7633C37.3524 49.9647 37.6255 50.078 37.9103 50.0781H42.2069C42.4917 50.0781 42.7649 49.965 42.9664 49.7635C43.1678 49.5621 43.281 49.2889 43.281 49.004V43.1638H49.1212C49.2623 43.1639 49.402 43.1362 49.5323 43.0822C49.6627 43.0282 49.7811 42.9491 49.8809 42.8494C49.9806 42.7496 50.0598 42.6312 50.1137 42.5008C50.1677 42.3705 50.1954 42.2307 50.1953 42.0897V37.7931C50.1954 37.6521 50.1677 37.5124 50.1137 37.382C50.0598 37.2516 49.9806 37.1332 49.8809 37.0334C49.7811 36.9337 49.6627 36.8546 49.5323 36.8006C49.402 36.7467 49.2623 36.7189 49.1212 36.719ZM48.0471 41.0155H42.2044C41.9195 41.0155 41.6463 41.1287 41.4449 41.3301C41.2434 41.5316 41.1303 41.8048 41.1303 42.0897V47.9299H38.982V42.0915C38.9821 41.9504 38.9544 41.8107 38.9004 41.6804C38.8465 41.55 38.7673 41.4316 38.6676 41.3318C38.5678 41.232 38.4494 41.1529 38.319 41.099C38.1887 41.045 38.049 41.0173 37.9079 41.0174H32.0701V38.8691H37.9079C38.049 38.8692 38.1887 38.8415 38.319 38.7875C38.4494 38.7336 38.5678 38.6545 38.6676 38.5547C38.7673 38.4549 38.8465 38.3365 38.9004 38.2061C38.9544 38.0758 38.9821 37.9361 38.982 37.795V31.9529H41.1303V37.795C41.1303 38.0799 41.2434 38.3531 41.4449 38.5545C41.6463 38.756 41.9195 38.8691 42.2044 38.8691H48.0446L48.0471 41.0155Z" fill="#545F71"/>
<rect x="0.5" y="0.5" width="79" height="79" rx="9.5" stroke="#545F71"/>
</svg>
