<svg width="22" height="22" viewBox="0 0 22 22" fill="none" xmlns="http://www.w3.org/2000/svg">
<path d="M20.8148 10.352L14.3982 3.9353C14.2253 3.76832 13.9937 3.67592 13.7534 3.67801C13.513 3.6801 13.2831 3.77651 13.1132 3.94646C12.9432 4.11642 12.8468 4.34633 12.8447 4.58668C12.8426 4.82703 12.935 5.05858 13.102 5.23146L17.9539 10.0834H1.83341C1.5903 10.0834 1.35714 10.18 1.18523 10.3519C1.01333 10.5238 0.916748 10.7569 0.916748 11C0.916748 11.2432 1.01333 11.4763 1.18523 11.6482C1.35714 11.8201 1.5903 11.9167 1.83341 11.9167H17.9539L13.102 16.7686C13.0144 16.8532 12.9446 16.9543 12.8966 17.0662C12.8485 17.178 12.8232 17.2983 12.8222 17.42C12.8211 17.5417 12.8443 17.6624 12.8904 17.7751C12.9365 17.8877 13.0046 17.9901 13.0906 18.0762C13.1767 18.1622 13.2791 18.2303 13.3917 18.2764C13.5044 18.3225 13.6251 18.3457 13.7468 18.3446C13.8685 18.3436 13.9888 18.3183 14.1006 18.2702C14.2125 18.2222 14.3136 18.1523 14.3982 18.0648L20.8148 11.6481C20.9867 11.4762 21.0832 11.2431 21.0832 11C21.0832 10.757 20.9867 10.5239 20.8148 10.352Z" fill="#1C396A"/>
</svg>
