<svg width="80" height="80" viewBox="0 0 80 80" fill="none" xmlns="http://www.w3.org/2000/svg">
<path d="M66.5566 37.7181C66.2097 28.1725 52.48 28.1856 52.1416 37.7181C52.1436 39.5032 52.8071 41.2241 54.0039 42.5485C55.2007 43.8729 56.8459 44.7068 58.6216 44.8891C59.8506 61.1013 49.1931 63.9672 48.8162 64.0666C43.1631 64.8982 38.7728 64.0225 35.77 61.4603C32.0884 58.3197 31.2916 53.2994 31.1434 50.5835C37.3216 48.7769 45.1469 40.1294 46.4669 24.6991C46.6106 22.9488 46.0904 21.2086 45.0099 19.8242C43.9293 18.4399 42.3674 17.5128 40.6347 17.2272C39.5725 12.1975 32.1634 12.866 32.08 18.071C32.0895 19.1165 32.4781 20.1232 33.1737 20.9039C33.8692 21.6846 34.8245 22.1863 35.8621 22.3158C36.8997 22.4454 37.949 22.194 38.8152 21.6083C39.6814 21.0226 40.3056 20.1424 40.5719 19.1313C41.7887 19.3872 42.8698 20.0797 43.6112 21.0779C44.3526 22.0761 44.7031 23.3111 44.5966 24.55C43.4575 38.8806 36.6175 45.4169 32.6453 48.0344C31.9347 48.5103 31.102 48.771 30.2469 48.7853C29.3918 48.7996 28.5508 48.5669 27.8247 48.115C20.8375 43.4819 17.0875 31.9656 15.475 25.5128C15.3103 24.8648 15.2773 24.1903 15.378 23.5292C15.4786 22.8682 15.7108 22.2341 16.0609 21.6644C16.4809 20.997 17.0434 20.431 17.7082 20.0069C18.373 19.5829 19.1234 19.3114 19.9056 19.2119C20.1916 20.2336 20.8441 21.1141 21.7384 21.685C22.6327 22.2559 23.7061 22.4772 24.7533 22.3065C25.8005 22.1358 26.748 21.5852 27.4147 20.7599C28.0815 19.9345 28.4207 18.8924 28.3674 17.8328C28.3142 16.7731 27.8722 15.7702 27.1261 15.0159C26.38 14.2616 25.382 13.8087 24.323 13.7438C23.264 13.679 22.2183 14.0067 21.3857 14.6644C20.5531 15.3221 19.9921 16.2635 19.81 17.3088L18.8059 17.5431C17.9131 17.7556 17.0711 18.1425 16.3283 18.6816C15.5856 19.2207 14.9568 19.9014 14.4782 20.6844C13.9996 21.4675 13.6806 22.3375 13.5395 23.2443C13.3984 24.1512 13.4381 25.077 13.6562 25.9685C15.475 32.7738 20.0003 47.9088 29.2675 50.6078C29.4222 53.5966 30.3044 59.2628 34.5531 62.8872C38.0087 66.0419 44.0687 66.776 49.1744 65.905C49.3028 65.8741 61.7988 62.6116 60.4947 44.8263C62.1841 44.5531 63.7213 43.6883 64.8318 42.3861C65.9423 41.084 66.5536 39.4295 66.5566 37.7181ZM36.4 20.515C35.7515 20.515 35.1296 20.2574 34.6711 19.7989C34.2126 19.3404 33.955 18.7185 33.955 18.07C33.955 17.4216 34.2126 16.7997 34.6711 16.3411C35.1296 15.8826 35.7515 15.625 36.4 15.625C37.0485 15.625 37.6703 15.8826 38.1289 16.3411C38.5874 16.7997 38.845 17.4216 38.845 18.07C38.845 18.7185 38.5874 19.3404 38.1289 19.7989C37.6703 20.2574 37.0485 20.515 36.4 20.515ZM24.0531 15.625C24.7016 15.625 25.3235 15.8826 25.782 16.3411C26.2405 16.7997 26.4981 17.4216 26.4981 18.07C26.4981 18.7185 26.2405 19.3404 25.782 19.7989C25.3235 20.2574 24.7016 20.515 24.0531 20.515C23.4047 20.515 22.7828 20.2574 22.3242 19.7989C21.8657 19.3404 21.6081 18.7185 21.6081 18.07C21.6081 17.4216 21.8657 16.7997 22.3242 16.3411C22.7828 15.8826 23.4047 15.625 24.0531 15.625ZM59.4409 43.0469C52.3281 42.9269 52.2316 32.6425 59.3491 32.3856C66.3409 32.6031 66.4216 42.715 59.4409 43.0469Z" fill="#545F71"/>
<path d="M59.3491 34.4181C58.4739 34.4181 57.6345 34.7658 57.0156 35.3846C56.3967 36.0035 56.0491 36.8429 56.0491 37.7181C56.0491 38.5933 56.3967 39.4327 57.0156 40.0515C57.6345 40.6704 58.4739 41.0181 59.3491 41.0181C60.2243 41.0181 61.0637 40.6704 61.6825 40.0515C62.3014 39.4327 62.6491 38.5933 62.6491 37.7181C62.6491 36.8429 62.3014 36.0035 61.6825 35.3846C61.0637 34.7658 60.2243 34.4181 59.3491 34.4181ZM59.3491 39.1431C58.9711 39.1431 58.6087 38.993 58.3414 38.7257C58.0742 38.4585 57.9241 38.096 57.9241 37.7181C57.9241 37.3402 58.0742 36.9777 58.3414 36.7105C58.6087 36.4432 58.9711 36.2931 59.3491 36.2931C59.727 36.2931 60.0895 36.4432 60.3567 36.7105C60.6239 36.9777 60.7741 37.3402 60.7741 37.7181C60.7741 38.096 60.6239 38.4585 60.3567 38.7257C60.0895 38.993 59.727 39.1431 59.3491 39.1431Z" fill="#545F71"/>
<rect x="0.5" y="0.5" width="79" height="79" rx="9.5" stroke="#545F71"/>
</svg>
