<svg width="219" height="40" viewBox="0 0 219 40" fill="none" xmlns="http://www.w3.org/2000/svg">
<circle cx="20" cy="20" r="20" fill="white"/>
<g clip-path="url(#clip0_289_814)">
<path d="M24.8344 12.2901H27.1828V8.00261H22.9151C22.5591 7.9878 18.2193 7.90484 17.0945 12.1943C17.0782 12.2392 16.7187 13.2594 16.7187 15.6423L12.8164 15.6542V20.151L16.7237 20.1396V32.0006H22.6919V20.15H26.6421V15.6413H22.6919V14.2227C22.6919 13.3408 23.0637 12.2901 24.8344 12.2901ZM25.6546 16.6284V19.162H21.7044V31.0126H17.7112V19.1491L13.804 19.1605V16.6388L17.7216 16.6274L17.7112 16.1252C17.6599 13.601 18.0198 12.5394 18.0361 12.4886C19.0069 8.79413 22.7137 8.97979 22.8727 8.98967L26.1953 8.99066V11.303H24.8344C22.527 11.303 21.7049 12.811 21.7049 14.2222V16.6284H25.6546Z" fill="#1C396A"/>
</g>
<circle cx="80" cy="20" r="20" fill="white"/>
<path d="M91.8006 12.3848C91.7219 12.3317 91.6287 12.3045 91.5338 12.307C91.4389 12.3096 91.3472 12.3417 91.2715 12.3989C91.0676 12.5533 90.7362 12.6759 90.3792 12.7704C91.3088 11.7286 91.3288 11.0329 91.3188 10.8731C91.3137 10.7919 91.2868 10.7136 91.2411 10.6464C91.1954 10.5791 91.1324 10.5253 91.0588 10.4907C90.9852 10.4561 90.9037 10.4419 90.8227 10.4496C90.7418 10.4572 90.6643 10.4865 90.5986 10.5343C89.5527 11.2945 88.511 11.4548 87.8916 11.4712C86.9522 10.5649 85.6971 10.0598 84.3918 10.0625C81.5782 10.0625 79.2895 12.3821 79.2895 15.233C79.2895 15.4782 79.3067 15.723 79.3408 15.9654C74.4646 15.9105 70.5048 11.2382 70.4639 11.1896C70.417 11.1335 70.3573 11.0895 70.2898 11.0614C70.2222 11.0334 70.1489 11.022 70.0761 11.0283C70.0032 11.0347 69.933 11.0585 69.8713 11.0978C69.8097 11.1371 69.7584 11.1907 69.7219 11.2541C68.3187 13.6881 69.2578 15.826 70.1161 17.0503C69.9952 16.9867 69.8789 16.9149 69.7678 16.8355C69.7007 16.7855 69.6212 16.7549 69.5379 16.7473C69.4546 16.7396 69.3708 16.755 69.2957 16.792C69.2207 16.8289 69.1573 16.8858 69.1125 16.9565C69.0678 17.0271 69.0434 17.1088 69.0421 17.1924C69.0044 19.512 70.1206 20.8407 71.1705 21.5755C71.0961 21.568 71.0209 21.5791 70.9518 21.6077C70.8827 21.6362 70.8217 21.6815 70.7742 21.7393C70.7268 21.7971 70.6943 21.8658 70.6798 21.9392C70.6653 22.0125 70.6691 22.0884 70.691 22.1599C71.4162 24.5335 73.1967 25.34 74.3297 25.6139C72.0002 27.4276 68.5716 26.8436 68.534 26.8372C68.4337 26.8193 68.3304 26.8356 68.2405 26.8835C68.1507 26.9314 68.0795 27.0081 68.0385 27.1013C67.9975 27.1945 67.989 27.2988 68.0143 27.3974C68.0397 27.496 68.0975 27.5833 68.1784 27.6451C70.6374 29.5219 73.5786 29.9374 75.7029 29.9374C77.31 29.9374 78.4503 29.6995 78.5593 29.6754C89.3207 27.1251 89.6236 17.2678 89.5986 15.6526C91.6189 13.7739 91.9345 13.0583 91.9831 12.8812C92.0086 12.7897 92.0046 12.6926 91.9719 12.6036C91.9391 12.5145 91.8792 12.438 91.8006 12.3848ZM88.8316 15.1253C88.7817 15.1714 88.7427 15.2281 88.7175 15.2912C88.6924 15.3543 88.6817 15.4222 88.6863 15.49C88.7149 15.9259 89.2653 26.2056 78.359 28.7899C78.3095 28.8003 73.9742 29.7049 70.216 27.8431C71.804 27.799 74.0809 27.3831 75.6671 25.602C75.7257 25.5368 75.7641 25.4559 75.7777 25.3693C75.7913 25.2826 75.7794 25.1939 75.7435 25.1138C75.7077 25.0338 75.6494 24.9659 75.5756 24.9183C75.5019 24.8708 75.416 24.8456 75.3283 24.846H75.3238C75.3011 24.8605 72.9165 24.8432 71.8249 22.575C72.2644 22.5999 72.8067 22.5727 73.2385 22.3738C73.3253 22.3338 73.3972 22.2676 73.4441 22.1844C73.491 22.1012 73.5105 22.0053 73.4998 21.9104C73.4891 21.8155 73.4487 21.7264 73.3844 21.6557C73.3202 21.5851 73.2353 21.5365 73.1418 21.5169C73.0196 21.491 70.3649 20.8975 69.9935 18.0017C70.3963 18.1779 70.9117 18.3218 71.4212 18.2442C71.5071 18.2314 71.5877 18.1943 71.6531 18.1371C71.7186 18.08 71.7663 18.0052 71.7905 17.9217C71.8147 17.8383 71.8144 17.7496 71.7897 17.6663C71.7649 17.5829 71.7168 17.5085 71.6509 17.4517C71.5374 17.3527 69.0444 15.1372 70.2264 12.2795C71.5097 13.6259 75.3106 17.1248 79.9157 16.8605C79.9823 16.8564 80.0473 16.8377 80.1059 16.8057C80.1645 16.7737 80.2154 16.7293 80.2549 16.6755C80.2945 16.6217 80.3217 16.5598 80.3347 16.4944C80.3478 16.4289 80.3462 16.3613 80.3303 16.2965C80.243 15.9489 80.1988 15.5918 80.1986 15.2334C80.1986 12.883 82.0804 10.9712 84.3932 10.9712C85.5244 10.9712 86.5856 11.4226 87.3808 12.2427C87.4643 12.329 87.5792 12.3785 87.6991 12.3807C88.1804 12.3875 88.9715 12.3308 89.8652 11.9725C89.6072 12.2935 89.2285 12.6782 88.6713 13.1159C88.5946 13.1762 88.5394 13.2596 88.5138 13.3537C88.4882 13.4478 88.4935 13.5477 88.5291 13.6385C88.5646 13.7293 88.6285 13.8063 88.7112 13.858C88.7939 13.9097 88.8911 13.9334 88.9883 13.9256C89.4102 13.8889 89.8293 13.8261 90.2434 13.7376C89.7907 14.218 89.3198 14.6809 88.8316 15.1253Z" fill="#1C396A"/>
<circle cx="140" cy="20" r="20" fill="white"/>
<g clip-path="url(#clip1_289_814)">
<path d="M140 14.0249C136.706 14.0249 134.025 16.7052 134.025 19.9998C134.025 23.2943 136.706 25.9747 140 25.9747C143.295 25.9747 145.975 23.2943 145.975 19.9998C145.975 16.7052 143.295 14.0249 140 14.0249ZM140 24.5684C137.481 24.5684 135.431 22.5189 135.431 19.9998C135.431 17.4806 137.481 15.4312 140 15.4312C142.519 15.4312 144.569 17.4806 144.569 19.9998C144.569 22.5189 142.519 24.5684 140 24.5684Z" fill="#1C396A"/>
<path d="M145.648 8H134.352C130.849 8 128 10.8493 128 14.3516V25.6484C128 29.1507 130.849 32 134.352 32H145.648C149.151 32 152 29.1507 152 25.6484V14.3516C152 10.8493 149.151 8 145.648 8ZM150.594 25.6484C150.594 28.3753 148.375 30.5938 145.648 30.5938H134.352C131.625 30.5938 129.406 28.3753 129.406 25.6484V14.3516C129.406 11.6247 131.625 9.40625 134.352 9.40625H145.648C148.375 9.40625 150.594 11.6247 150.594 14.3516V25.6484Z" fill="#1C396A"/>
<path d="M146.684 12.6123C146.498 12.6123 146.317 12.6873 146.187 12.8186C146.055 12.9493 145.98 13.1303 145.98 13.3154C145.98 13.5006 146.056 13.682 146.187 13.8128C146.317 13.9436 146.498 14.0186 146.684 14.0186C146.869 14.0186 147.05 13.9436 147.181 13.8128C147.312 13.682 147.387 13.5006 147.387 13.3154C147.387 13.1307 147.312 12.9493 147.181 12.8186C147.05 12.6873 146.869 12.6123 146.684 12.6123Z" fill="#1C396A"/>
</g>
<circle cx="199" cy="20" r="20" fill="white"/>
<g clip-path="url(#clip2_289_814)">
<path d="M191.89 23.9536C194.257 26.7833 197.107 29.0112 200.359 30.5877C201.597 31.1745 203.253 31.8707 205.099 31.9901C205.213 31.995 205.322 32 205.437 32C206.675 32 207.67 31.5723 208.48 30.6921C208.485 30.6871 208.495 30.6772 208.5 30.6672C208.789 30.3191 209.117 30.0058 209.46 29.6726C209.694 29.4488 209.932 29.2151 210.161 28.9764C211.22 27.8724 211.22 26.47 210.151 25.4007L207.162 22.4119C206.655 21.8848 206.048 21.6063 205.412 21.6063C204.775 21.6063 204.164 21.8848 203.641 22.407L201.861 24.1873C201.697 24.0928 201.528 24.0083 201.369 23.9287C201.17 23.8293 200.986 23.7348 200.822 23.6303C199.2 22.6009 197.728 21.2582 196.321 19.5325C195.61 18.6324 195.132 17.8765 194.799 17.1057C195.267 16.683 195.704 16.2404 196.127 15.8077C196.276 15.6535 196.43 15.4994 196.585 15.3452C197.122 14.8081 197.41 14.1865 197.41 13.5549C197.41 12.9233 197.127 12.3017 196.585 11.7646L195.103 10.2826C194.929 10.1086 194.764 9.93949 194.595 9.76544C194.267 9.42727 193.924 9.07915 193.586 8.76585C193.074 8.26357 192.472 8 191.835 8C191.204 8 190.597 8.26357 190.065 8.77082L188.205 10.6308C187.529 11.3071 187.146 12.1276 187.066 13.0775C186.972 14.2661 187.191 15.5292 187.757 17.0559C188.628 19.4182 189.941 21.6113 191.89 23.9536ZM188.28 13.1819C188.339 12.5205 188.593 11.9685 189.07 11.4911L190.92 9.64111C191.209 9.36262 191.527 9.2184 191.835 9.2184C192.139 9.2184 192.447 9.36262 192.73 9.65106C193.064 9.95939 193.377 10.2826 193.715 10.6258C193.884 10.7998 194.058 10.9739 194.232 11.1529L195.714 12.6349C196.023 12.9432 196.182 13.2565 196.182 13.5649C196.182 13.8732 196.023 14.1865 195.714 14.4948C195.56 14.649 195.406 14.8081 195.252 14.9623C194.789 15.4298 194.357 15.8724 193.879 16.2951L193.854 16.3199C193.442 16.7327 193.506 17.1256 193.606 17.424C193.611 17.4389 193.616 17.4488 193.621 17.4637C194.004 18.3838 194.536 19.259 195.366 20.3034C196.858 22.1434 198.43 23.5707 200.16 24.6697C200.374 24.809 200.603 24.9184 200.817 25.0278C201.016 25.1272 201.2 25.2217 201.364 25.3261C201.384 25.3361 201.399 25.346 201.418 25.356C201.583 25.4405 201.742 25.4803 201.901 25.4803C202.299 25.4803 202.557 25.2267 202.642 25.1421L204.502 23.2822C204.79 22.9938 205.103 22.8396 205.412 22.8396C205.79 22.8396 206.098 23.0734 206.292 23.2822L209.291 26.276C209.888 26.8728 209.883 27.5193 209.276 28.1509C209.067 28.3746 208.848 28.5885 208.614 28.8123C208.266 29.1504 207.903 29.4986 207.575 29.8914C207.003 30.5081 206.322 30.7965 205.442 30.7965C205.357 30.7965 205.268 30.7915 205.183 30.7866C203.552 30.6821 202.035 30.0456 200.896 29.5035C197.803 28.0066 195.088 25.8831 192.835 23.1877C190.98 20.9548 189.732 18.8761 188.906 16.6482C188.394 15.2806 188.2 14.1815 188.28 13.1819Z" fill="#1C396A"/>
</g>
<defs>
<clipPath id="clip0_289_814">
<rect width="24" height="24" fill="white" transform="translate(8 8)"/>
</clipPath>
<clipPath id="clip1_289_814">
<rect width="24" height="24" fill="white" transform="translate(128 8)"/>
</clipPath>
<clipPath id="clip2_289_814">
<rect width="24" height="24" fill="white" transform="translate(187 8)"/>
</clipPath>
</defs>
</svg>
