<svg width="80" height="80" viewBox="0 0 80 80" fill="none" xmlns="http://www.w3.org/2000/svg">
<path d="M54.9063 65.5938H44.125V59.125C44.5 59.125 44.9688 59.0312 45.3438 59.0312C54.4375 57.9062 61.375 49.6562 61.375 39.8125C61.375 34.2812 59.2188 29.125 55.375 25.4688C54.8125 24.9062 54.1562 24.3438 53.4062 23.875L56.125 19.6562L56.2187 19.4688C57.0625 17.7813 56.4063 15.625 54.9063 14.7812L49.4688 11.5938C48.625 11.125 47.6875 11.0312 46.8437 11.3125C46 11.5938 45.3438 12.1562 44.875 13L32.3125 32.5L32.2188 32.6875C31.375 34.375 32.0312 36.5312 33.5312 37.375L38.9688 40.5625H39.0625C39.625 40.8437 40.0938 40.9375 40.6562 40.9375C41.0312 40.9375 41.3125 40.8437 41.6875 40.75C42.5312 40.4687 43.1875 39.9062 43.5625 39.0625L51.625 26.5C52.0938 26.875 52.6563 27.25 53.0313 27.7187C56.2188 30.8125 58 35.0312 58 39.7188C58 47.875 52.375 54.8125 44.875 55.6562C44.3125 55.75 43.75 55.75 43.0937 55.75C42.3437 55.75 41.5938 55.6562 40.8438 55.5625C36.7188 54.9062 33.1562 52.4688 30.8125 48.9062H38.5C39.4375 48.9062 40.1875 48.1562 40.1875 47.2188C40.1875 46.2812 39.4375 45.5312 38.5 45.5312H20.2187C19.2812 45.5312 18.5312 46.2812 18.5312 47.2188C18.5312 48.1562 19.2812 48.9062 20.2187 48.9062H27.1562C29.875 54.25 34.75 57.9062 40.4688 58.8437H40.8438V65.4062H30.1562C29.2188 65.4062 28.4688 66.1562 28.4688 67.0938C28.4688 68.0312 29.2188 68.7812 30.1562 68.7812H54.9063C55.8438 68.7812 56.5938 68.0312 56.5938 67.0938C56.5938 66.1562 55.75 65.5938 54.9063 65.5938ZM40.75 37.4687L40.6562 37.75H40.5625L35.125 34.5625C35.125 34.5625 35.0312 34.375 35.125 34.2812L47.6875 14.6875L47.875 14.4062L53.3125 17.5938C53.3125 17.5938 53.4062 17.7812 53.3125 17.875L40.75 37.4687Z" fill="white"/>
<rect x="0.5" y="0.5" width="79" height="79" rx="9.5" stroke="white"/>
</svg>
