<svg width="90" height="90" viewBox="0 0 90 90" fill="none" xmlns="http://www.w3.org/2000/svg">
<rect width="90" height="90" rx="10" fill="#4CD080"/>
<g clip-path="url(#clip0_53_357)">
<path d="M45 16C28.9837 16 16 28.9837 16 45C16 61.0163 28.9837 74 45 74C61.0163 74 74 61.0163 74 45C74 28.9837 61.0163 16 45 16ZM45 70.375C30.9858 70.375 19.625 59.0142 19.625 45C19.625 30.9858 30.9858 19.625 45 19.625C59.0142 19.625 70.375 30.9858 70.375 45C70.375 59.0142 59.0142 70.375 45 70.375Z" fill="#FFFAFA"/>
<path d="M35.9375 39.5625C37.9395 39.5625 39.5625 37.9395 39.5625 35.9375C39.5625 33.9355 37.9395 32.3125 35.9375 32.3125C33.9355 32.3125 32.3125 33.9355 32.3125 35.9375C32.3125 37.9395 33.9355 39.5625 35.9375 39.5625Z" fill="#FFFAFA"/>
<path d="M54.0625 39.5625C56.0645 39.5625 57.6875 37.9395 57.6875 35.9375C57.6875 33.9355 56.0645 32.3125 54.0625 32.3125C52.0605 32.3125 50.4375 33.9355 50.4375 35.9375C50.4375 37.9395 52.0605 39.5625 54.0625 39.5625Z" fill="#FFFAFA"/>
<path d="M57.6875 45C57.6875 52.0071 52.0071 57.6875 45 57.6875C37.9929 57.6875 32.3125 52.0071 32.3125 45H28.6875C28.6875 54.0091 35.9909 61.3125 45 61.3125C54.0091 61.3125 61.3125 54.0091 61.3125 45H57.6875Z" fill="#FFFAFA"/>
</g>
<defs>
<clipPath id="clip0_53_357">
<rect width="58" height="58" fill="white" transform="translate(16 16)"/>
</clipPath>
</defs>
</svg>
