<svg width="1206" height="575" viewBox="0 0 1206 575" fill="none" xmlns="http://www.w3.org/2000/svg">
<path d="M0 574C0 498.621 15.597 423.981 45.9006 354.34C76.2042 284.699 120.621 221.422 176.615 168.121C232.608 114.82 299.083 72.5393 372.242 43.6931C445.401 14.8469 523.813 0 603 0C682.187 0 760.599 14.8469 833.758 43.6931C906.917 72.5393 973.392 114.82 1029.39 168.121C1085.38 221.422 1129.8 284.699 1160.1 354.34C1190.4 423.981 1206 498.621 1206 574L603 574H0Z" fill="url(#paint0_linear_53_499)"/>
<path d="M95 574.5C95 509.167 107.842 444.474 132.794 384.115C157.745 323.755 194.317 268.911 240.422 222.714C286.526 176.517 341.26 139.872 401.498 114.87C461.736 89.8682 526.299 77 591.5 77C656.701 77 721.264 89.8682 781.502 114.87C841.741 139.872 896.474 176.517 942.579 222.714C988.683 268.912 1025.25 323.756 1050.21 384.115C1075.16 444.474 1088 509.167 1088 574.5L591.5 574.5H95Z" fill="url(#paint1_linear_53_499)"/>
<path d="M203 574.5C203 525.583 213.269 477.144 233.22 431.95C253.171 386.757 282.414 345.693 319.279 311.103C356.143 276.513 399.908 249.075 448.075 230.355C496.241 211.635 547.865 202 600 202C652.135 202 703.759 211.635 751.925 230.355C800.092 249.075 843.857 276.513 880.721 311.103C917.586 345.693 946.829 386.757 966.78 431.95C986.731 477.144 997 525.583 997 574.5L600 574.5H203Z" fill="url(#paint2_linear_53_499)"/>
<defs>
<linearGradient id="paint0_linear_53_499" x1="666.84" y1="270.153" x2="633.001" y2="559.963" gradientUnits="userSpaceOnUse">
<stop stop-color="#E9F7FF"/>
</linearGradient>
<linearGradient id="paint1_linear_53_499" x1="644.064" y1="311.148" x2="613.237" y2="561.969" gradientUnits="userSpaceOnUse">
<stop stop-color="#DEF3FF"/>
</linearGradient>
<linearGradient id="paint2_linear_53_499" x1="642.03" y1="377.317" x2="620.376" y2="565.463" gradientUnits="userSpaceOnUse">
<stop stop-color="#D2EFFF"/>
</linearGradient>
</defs>
</svg>
